<svg xmlns="http://www.w3.org/2000/svg" width="1000" height="420" viewBox="0 0 1000 420" role="img" aria-labelledby="title desc">
  <title>Calibration Search Behavior</title>
  <desc>Throughput and cost-variance snapshot from the completed d00/d10 deterministic calibration.</desc>
  <rect width="1000" height="420" fill="#f8fafc"/>
  <rect x="16" y="16" width="968" height="388" rx="20" fill="#ffffff" stroke="#dbe4ee"/>
  <text x="40" y="56" font-family="Arial, Helvetica, sans-serif" font-size="26" font-weight="700" fill="#0f172a">Calibration Search Behavior</text>
  <text x="40" y="84" font-family="Arial, Helvetica, sans-serif" font-size="14" fill="#475569">Throughput and cost-variance snapshot from the completed d00/d10 deterministic calibration.</text>
  <text x="70" y="130" font-family="Arial, Helvetica, sans-serif" font-size="18" font-weight="700" fill="#0f172a">Total Training Runs</text><text x="70" y="157" font-family="Arial, Helvetica, sans-serif" font-size="14" fill="#334155">d00</text><rect x="70" y="175" width="220" height="28" rx="8" fill="#e2e8f0"/><rect x="70" y="175" width="149.9" height="28" rx="8" fill="#1d4ed8"/><text x="308" y="194" font-family="Arial, Helvetica, sans-serif" font-size="16" font-weight="700" fill="#0f172a">47</text><text x="70" y="231" font-family="Arial, Helvetica, sans-serif" font-size="14" fill="#334155">d10</text><rect x="70" y="249" width="220" height="28" rx="8" fill="#e2e8f0"/><rect x="70" y="249" width="220.0" height="28" rx="8" fill="#7c3aed"/><text x="308" y="268" font-family="Arial, Helvetica, sans-serif" font-size="16" font-weight="700" fill="#0f172a">69</text><text x="390" y="130" font-family="Arial, Helvetica, sans-serif" font-size="18" font-weight="700" fill="#0f172a">Mean Runs / Rep</text><text x="390" y="157" font-family="Arial, Helvetica, sans-serif" font-size="14" fill="#334155">d00</text><rect x="390" y="175" width="220" height="28" rx="8" fill="#e2e8f0"/><rect x="390" y="175" width="149.9" height="28" rx="8" fill="#1d4ed8"/><text x="628" y="194" font-family="Arial, Helvetica, sans-serif" font-size="16" font-weight="700" fill="#0f172a">9.4</text><text x="390" y="231" font-family="Arial, Helvetica, sans-serif" font-size="14" fill="#334155">d10</text><rect x="390" y="249" width="220" height="28" rx="8" fill="#e2e8f0"/><rect x="390" y="249" width="220.0" height="28" rx="8" fill="#7c3aed"/><text x="628" y="268" font-family="Arial, Helvetica, sans-serif" font-size="16" font-weight="700" fill="#0f172a">13.8</text><text x="690" y="130" font-family="Arial, Helvetica, sans-serif" font-size="18" font-weight="700" fill="#0f172a">Wall-Clock CV</text><text x="690" y="157" font-family="Arial, Helvetica, sans-serif" font-size="14" fill="#334155">d00</text><rect x="690" y="175" width="220" height="28" rx="8" fill="#e2e8f0"/><rect x="690" y="175" width="220.0" height="28" rx="8" fill="#1d4ed8"/><text x="928" y="194" font-family="Arial, Helvetica, sans-serif" font-size="16" font-weight="700" fill="#0f172a">0.636</text><text x="690" y="231" font-family="Arial, Helvetica, sans-serif" font-size="14" fill="#334155">d10</text><rect x="690" y="249" width="220" height="28" rx="8" fill="#e2e8f0"/><rect x="690" y="249" width="110.7" height="28" rx="8" fill="#7c3aed"/><text x="928" y="268" font-family="Arial, Helvetica, sans-serif" font-size="16" font-weight="700" fill="#0f172a">0.320</text><text x="70" y="360" font-family="Arial, Helvetica, sans-serif" font-size="14" fill="#475569">Interpretation: d10 iterates faster and more consistently, but this throughput gain did not translate into a quality gain in calibration.</text>
</svg>
